<svg id="Layer_2" data-name="Layer 2" xmlns="http://www.w3.org/2000/svg" viewBox="0 0 48 48"><defs><style>.cls-1{fill:#15132d;}</style></defs><path class="cls-1" d="M14.24,46.57C7.75,46.57,6,41.3,6,38.19a4.72,4.72,0,0,1,1.42-3.5c1.33-1.29,3.52-2,6.32-2,6.73,0,7.73,3.51,7.73,5.58v1.18A7.18,7.18,0,0,1,14.24,46.57ZM13.7,33.86c-2.43,0-4.36.58-5.44,1.64a3.58,3.58,0,0,0-1.08,2.69c0,.74.2,7.25,7.06,7.25a6,6,0,0,0,6.09-5.95V38.31c0-2.93-2.21-4.43-6.57-4.45Z"/><path class="cls-1" d="M33.76,46.57a7.18,7.18,0,0,1-7.25-7.08V38.31c0-2.07,1-5.56,7.73-5.58h.06c2.78,0,4.94.68,6.26,2A4.72,4.72,0,0,1,42,38.19C42,41.3,40.25,46.57,33.76,46.57Zm.54-12.71h-.06c-4.36,0-6.57,1.52-6.57,4.45v1.18a6,6,0,0,0,6.09,5.95c6.86,0,7.06-6.51,7.06-7.25a3.58,3.58,0,0,0-1.08-2.69C38.66,34.44,36.73,33.86,34.3,33.86Z"/><path class="cls-1" d="M27.68,38.41H26.52c0-1-1.12-1.84-2.51-1.84s-2.52.83-2.52,1.84H20.33c0-1.64,1.65-3,3.68-3S27.68,36.77,27.68,38.41Z"/><path class="cls-1" d="M45.51,27.7h0s0-.77-.12-1.59V26l.27.5a16.23,16.23,0,0,0-.33-2v-.13c.19.31.29.51.29.51A16.19,16.19,0,0,0,45.22,23v-.11c.18.3.28.49.28.49a15.64,15.64,0,0,0-.41-2l.12.22A15.3,15.3,0,0,0,44.92,20a1,1,0,0,0,0-.17l.14.24a16.24,16.24,0,0,0-.34-1.6V18.4l.2.29s-.17-.79-.44-1.59l-.06-.34c.2.27.32.45.32.45a14.1,14.1,0,0,0-.69-2.1c.36.34.58.58.58.58a14.84,14.84,0,0,0-1-2c.41.31.67.53.67.53a16.43,16.43,0,0,0-1.11-1.7l0-.09c.47.31.76.54.76.54a14.57,14.57,0,0,0-1.38-1.86l0-.06.42.31a15,15,0,0,0-1.47-2c.68.44,1.12.79,1.12.79a16.12,16.12,0,0,0-2-2.61,1.33,1.33,0,0,0-.4-.24c.45.06.74.13.74.13a9.92,9.92,0,0,0-2.31-1.14,1.33,1.33,0,0,0-1.36.6,2.52,2.52,0,0,0-.59-2,17.42,17.42,0,0,0-3-1.79,19.63,19.63,0,0,1,1.51,1.75A18.59,18.59,0,0,0,32.12,3s.48.52,1.07,1.31h0a16.87,16.87,0,0,0-2.54-1.9,17.09,17.09,0,0,1,1,1.43l-.05,0A1.62,1.62,0,0,0,31,3.05a22.79,22.79,0,0,0-4-1.62s.68.49,1.53,1.25a17.25,17.25,0,0,0-3-1s.31.19.76.52a19.71,19.71,0,0,0-2.87-.7,18.71,18.71,0,0,1,1.82,1.19l-.07,0a16.05,16.05,0,0,0-3.18-.78l.26.15a21.92,21.92,0,0,0-2.55-.49s.48.24,1.15.65a19.6,19.6,0,0,0-2.86-.15l.81.3-.82,0h0a20.14,20.14,0,0,0-4-.29,21.54,21.54,0,0,1,2.36,1h0A17,17,0,0,0,13,3a18.56,18.56,0,0,1,1.89.61,13.38,13.38,0,0,0-2.52,0A21.22,21.22,0,0,0,9,3.78a20.7,20.7,0,0,1,2.21.59,19.44,19.44,0,0,0-2.8.53s.55,0,1.35.17a18.59,18.59,0,0,0-2.71.68,16.77,16.77,0,0,1,2.11.19A17.14,17.14,0,0,0,6,6.88s.49,0,1.21,0A20.79,20.79,0,0,0,4.61,8.42,18.83,18.83,0,0,1,6.82,8,18,18,0,0,0,4.34,9.8a17.64,17.64,0,0,1,2.05-.64A16.81,16.81,0,0,0,4.31,11.3s.46-.27,1.16-.61A19.76,19.76,0,0,0,4,12.34s.35-.22.91-.5A13.39,13.39,0,0,0,3.51,14s.3-.29.78-.67a15.07,15.07,0,0,0-1,2.12l.26-.27a15.62,15.62,0,0,0-1,2s.36-.39.91-.88a15.19,15.19,0,0,0-1.11,2.06s.3-.3.76-.72c-.24.64-.4,1.18-.4,1.18s.16-.22.45-.55a13.4,13.4,0,0,0-.6,2.53s.13-.25.36-.61a13.87,13.87,0,0,0-.38,2.1s.06-.13.18-.34a17.33,17.33,0,0,0-.2,1.74s.06-.11.15-.31c-.13.88-.16,1.79-.16,1.79l.1-.23a14.82,14.82,0,0,0-.19,2s.09-.23.26-.59a15.39,15.39,0,0,0-.22,2.15s.1-.25.28-.62a14.82,14.82,0,0,0-.15,2.27,5.53,5.53,0,0,1,.22-.55,16.45,16.45,0,0,0,0,1.7h0c0,.73,0,1.36,0,1.36L3,32.34a16.57,16.57,0,0,0,0,1.71l.09-.28c0,.8,0,1.56,0,1.56l.08-.27v.12c0,.78.05,1.48.05,1.48l.08-.27a1.23,1.23,0,0,1,0,.19,15.62,15.62,0,0,0,0,1.8s0-.16.13-.41h0l.24-.67c.33-.94.61-1.87.86-2.78.14-.5.27-1,.39-1.49,0-.18.09-.37.13-.55.11-.47.22-.94.32-1.4l0-.12c1.33-6,2-10.44,7.09-10.44,7,0,9,2.41,11.29,2.41s4.28-2.41,11.29-2.41c5,0,6.17,4.21,7.69,10l.05.18c.11.4.21.82.33,1.23,0,.19.09.37.14.56s.11.4.17.61.18.65.28,1L43.76,34l.16.21c0,.18.1.35.16.53.13.45.27.9.42,1.36s.41,1.22.64,1.84h0c.09.2.13.31.13.31s0-.27,0-.65l0,.07s0-.42-.05-1v-.2l.16.37s0-.69-.11-1.44v-.08c.14.31.22.51.22.51A16.07,16.07,0,0,0,45.35,34c.16.34.25.57.25.57a15.17,15.17,0,0,0-.18-2c.12.25.18.41.18.41s0-.82-.13-1.65c.09.19.13.3.13.3a14.28,14.28,0,0,0-.12-1.55c.08.17.12.27.12.27a16.71,16.71,0,0,0-.14-1.7l.14.32S45.59,28.42,45.51,27.7Z"/></svg>